<?xml version="1.0" encoding="UTF-8"?>
<svg width="228px" height="260px" viewBox="0 0 228 260" version="1.1" xmlns="http://www.w3.org/2000/svg" xmlns:xlink="http://www.w3.org/1999/xlink">
    <!-- Generator: Sketch 47.1 (45422) - http://www.bohemiancoding.com/sketch -->
    <title>Chai Logo (C)</title>
    <desc>Created with Sketch.</desc>
    <defs>
        <linearGradient x1="0%" y1="31.3313702%" x2="50%" y2="87.4999999%" id="linearGradient-1">
            <stop stop-color="#FFFEFA" offset="0%"></stop>
            <stop stop-color="#FFEBAE" offset="100%"></stop>
        </linearGradient>
    </defs>
    <g id="Logos" stroke="none" stroke-width="1" fill="none" fill-rule="evenodd">
        <g id="Chai-Logo-(C)">
            <g id="Hexagon-Base" fill-rule="nonzero">
                <polygon id="Polygon" fill="url(#linearGradient-1)" points="114 3 223.985226 66.5 223.985226 193.5 114 257 4.01477372 193.5 4.01477372 66.5"></polygon>
                <path d="M110.754957,0.669872981 L2.50004022,63.169873 C0.953009945,64.063037 -1.11022302e-15,65.7136721 -1.11022302e-15,67.5 L-1.11022302e-15,192.5 C-1.11022302e-15,194.286328 0.953009945,195.936963 2.50004022,196.830127 L110.754957,259.330127 C112.301987,260.223291 114.208008,260.223291 115.755038,259.330127 L224.009954,196.830127 C225.556985,195.936963 226.509995,194.286328 226.509995,192.5 L226.509995,67.5 C226.509995,65.7136721 225.556985,64.063037 224.009954,63.169873 L115.755038,0.669872981 C114.208008,-0.223290994 112.301987,-0.223290994 110.754957,0.669872981 Z M113.254997,10 L217.179717,70 L217.179717,190 L113.254997,250 L9.33027708,190 L9.33027708,70 L113.254997,10 Z" id="Combined-Shape" fill="#94161F"></path>
            </g>
            <path d="M152.417969,97.328125 C152.417969,100.890643 151.714851,104.42967 150.308594,107.945312 C148.902337,111.460955 147.015637,114.718735 144.648437,117.71875 C142.281238,120.718765 139.550797,123.343739 136.457031,125.59375 C133.363266,127.843761 130.15236,129.460933 126.824219,130.445312 L125.347656,127.984375 C127.316416,126.999995 129.121085,125.734383 130.761719,124.1875 C132.402352,122.640617 133.808588,120.894541 134.980469,118.949219 C136.15235,117.003897 137.054684,114.941417 137.6875,112.761719 C138.320316,110.58202 138.636719,108.367199 138.636719,106.117188 C138.636719,103.53905 138.261722,101.101574 137.511719,98.8046875 C136.761715,96.507801 135.660163,94.5039148 134.207031,92.7929688 C132.753899,91.0820227 130.960948,89.7343799 128.828125,88.75 C126.695302,87.7656201 124.246108,87.2734375 121.480469,87.2734375 C118.105452,87.2734375 115.011733,87.9296809 112.199219,89.2421875 C109.386705,90.5546941 106.85548,92.3242076 104.605469,94.5507812 C102.355457,96.7773549 100.398446,99.3320168 98.7343749,102.214844 C97.0703041,105.097671 95.6875055,108.121078 94.5859374,111.285156 C93.4843694,114.449235 92.6523465,117.648421 92.0898437,120.882812 C91.5273409,124.117204 91.2460937,127.164048 91.2460937,130.023438 C91.2460937,132.929702 91.5507782,135.929672 92.1601562,139.023438 C92.7695342,142.117203 93.6601503,145.164048 94.8320312,148.164062 C96.0039121,151.164077 97.4570225,153.999987 99.1914062,156.671875 C100.92579,159.343763 102.929676,161.68749 105.203125,163.703125 C107.476574,165.71876 110.007799,167.324213 112.796875,168.519531 C115.585951,169.71485 118.621077,170.3125 121.902344,170.3125 C124.152355,170.3125 126.343739,170.007816 128.476562,169.398438 C130.609386,168.789059 132.660146,167.968755 134.628906,166.9375 C136.597666,165.906245 138.460929,164.687507 140.21875,163.28125 C141.976571,161.874993 143.605461,160.351571 145.105469,158.710938 L147.425781,160.960938 C145.363271,163.679701 142.914077,166.292956 140.078125,168.800781 C137.242173,171.308606 134.18361,173.535147 130.902344,175.480469 C127.621077,177.425791 124.187518,178.972651 120.601562,180.121094 C117.015607,181.269537 113.464861,181.84375 109.949219,181.84375 C106.527327,181.84375 103.304703,181.2461 100.28125,180.050781 C97.2577973,178.855463 94.4804814,177.238291 91.9492187,175.199219 C89.417956,173.160146 87.1562599,170.769545 85.1640624,168.027344 C83.171865,165.285143 81.4843819,162.367203 80.1015624,159.273438 C78.718743,156.179672 77.6640661,152.992204 76.9374999,149.710938 C76.2109338,146.429671 75.8476562,143.218766 75.8476562,140.078125 C75.8476562,135.531227 76.6093673,130.855493 78.1328124,126.050781 C79.6562576,121.24607 81.7538928,116.582054 84.4257812,112.058594 C87.0976696,107.535134 90.2499818,103.257833 93.8828124,99.2265625 C97.5156431,95.1952923 101.429666,91.6797025 105.625,88.6796875 C109.820333,85.6796725 114.203102,83.30079 118.773437,81.5429688 C123.343773,79.7851475 127.902321,78.90625 132.449219,78.90625 C135.261733,78.90625 137.886707,79.3164021 140.324219,80.1367188 C142.761731,80.9570354 144.871085,82.1406173 146.652344,83.6875 C148.433603,85.2343827 149.839839,87.1562385 150.871094,89.453125 C151.902349,91.7500115 152.417969,94.3749852 152.417969,97.328125 Z" id="C" fill="#A30701"></path>
        </g>
    </g>
</svg>